<mxfile host="app.diagrams.net" modified="2020-11-16T05:08:33.949Z" agent="5.0 (Windows NT 10.0; Win64; x64) AppleWebKit/537.36 (KHTML, like Gecko) Chrome/86.0.4240.193 Safari/537.36" etag="6CGSCHa0bdrr1hvcLUA2" version="13.9.7" type="github">
  <diagram id="kgpKYQtTHZ0yAKxKKP6v" name="Page-1">
    <mxGraphModel dx="1985" dy="831" grid="0" gridSize="10" guides="1" tooltips="1" connect="1" arrows="1" fold="1" page="0" pageScale="1" pageWidth="1100" pageHeight="850" background="#F7FCFF" math="0" shadow="0">
      <root>
        <mxCell id="0" />
        <mxCell id="1" parent="0" />
        <mxCell id="wkqNDu4oZNAe2_1UIhFU-5" value="APP" style="shape=umlLifeline;perimeter=lifelinePerimeter;container=1;collapsible=0;recursiveResize=0;rounded=0;shadow=0;strokeWidth=1;fontSize=12;fontStyle=1" parent="1" vertex="1">
          <mxGeometry x="-90" y="360" width="100" height="760" as="geometry" />
        </mxCell>
        <mxCell id="wkqNDu4oZNAe2_1UIhFU-6" value="" style="points=[];perimeter=orthogonalPerimeter;rounded=0;shadow=0;strokeWidth=1;fontSize=12;fontStyle=1" parent="wkqNDu4oZNAe2_1UIhFU-5" vertex="1">
          <mxGeometry x="45" y="70" width="11" height="690" as="geometry" />
        </mxCell>
        <mxCell id="wkqNDu4oZNAe2_1UIhFU-16" value="VAN" style="shape=umlLifeline;perimeter=lifelinePerimeter;container=1;collapsible=0;recursiveResize=0;rounded=0;shadow=0;strokeWidth=1;fontSize=12;fontStyle=1" parent="1" vertex="1">
          <mxGeometry x="317" y="360" width="100" height="760" as="geometry" />
        </mxCell>
        <mxCell id="Cnj2iCvaiaWYSwRsUYoD-5" value="" style="points=[];perimeter=orthogonalPerimeter;rounded=0;shadow=0;strokeWidth=1;fontSize=12;fontStyle=1" parent="wkqNDu4oZNAe2_1UIhFU-16" vertex="1">
          <mxGeometry x="44.55000000000007" y="404" width="10.91" height="150" as="geometry" />
        </mxCell>
        <mxCell id="wkqNDu4oZNAe2_1UIhFU-17" value="TMS SERVER" style="shape=umlLifeline;perimeter=lifelinePerimeter;container=1;collapsible=0;recursiveResize=0;rounded=0;shadow=0;strokeWidth=1;size=40;fontSize=12;fontStyle=1" parent="1" vertex="1">
          <mxGeometry x="120" y="360" width="100" height="760" as="geometry" />
        </mxCell>
        <mxCell id="wkqNDu4oZNAe2_1UIhFU-38" value="" style="edgeStyle=orthogonalEdgeStyle;rounded=0;orthogonalLoop=1;jettySize=auto;html=1;startArrow=none;startFill=0;fontSize=12;fontStyle=1" parent="wkqNDu4oZNAe2_1UIhFU-17" target="wkqNDu4oZNAe2_1UIhFU-33" edge="1">
          <mxGeometry relative="1" as="geometry">
            <mxPoint x="70" y="320" as="targetPoint" />
            <Array as="points">
              <mxPoint x="80" y="305" />
              <mxPoint x="80" y="320" />
            </Array>
            <mxPoint x="49.99999999999977" y="305" as="sourcePoint" />
          </mxGeometry>
        </mxCell>
        <mxCell id="Cnj2iCvaiaWYSwRsUYoD-9" value="" style="points=[];perimeter=orthogonalPerimeter;rounded=0;shadow=0;strokeWidth=1;fontSize=12;fontStyle=1" parent="wkqNDu4oZNAe2_1UIhFU-17" vertex="1">
          <mxGeometry x="45" y="270" width="10" height="129" as="geometry" />
        </mxCell>
        <mxCell id="wkqNDu4oZNAe2_1UIhFU-33" value="" style="points=[];perimeter=orthogonalPerimeter;rounded=0;shadow=0;strokeWidth=1;fontSize=12;fontStyle=1" parent="wkqNDu4oZNAe2_1UIhFU-17" vertex="1">
          <mxGeometry x="50" y="310" width="10" height="30" as="geometry" />
        </mxCell>
        <mxCell id="Cnj2iCvaiaWYSwRsUYoD-23" value="" style="points=[];perimeter=orthogonalPerimeter;rounded=0;shadow=0;strokeWidth=1;fontSize=12;fontStyle=1" parent="wkqNDu4oZNAe2_1UIhFU-17" vertex="1">
          <mxGeometry x="44.55" y="597" width="10.91" height="150" as="geometry" />
        </mxCell>
        <mxCell id="Cnj2iCvaiaWYSwRsUYoD-34" value="" style="points=[];perimeter=orthogonalPerimeter;rounded=0;shadow=0;strokeWidth=1;fontSize=12;fontStyle=1" parent="wkqNDu4oZNAe2_1UIhFU-17" vertex="1">
          <mxGeometry x="45.46" y="70" width="10" height="80" as="geometry" />
        </mxCell>
        <mxCell id="wkqNDu4oZNAe2_1UIhFU-19" value="사용자" style="shape=umlActor;verticalLabelPosition=bottom;verticalAlign=top;html=1;outlineConnect=0;fontSize=12;fontStyle=1" parent="1" vertex="1">
          <mxGeometry x="-262.13" y="340" width="40" height="60" as="geometry" />
        </mxCell>
        <mxCell id="wkqNDu4oZNAe2_1UIhFU-23" value="" style="endArrow=classic;html=1;fontSize=12;fontStyle=1" parent="1" target="wkqNDu4oZNAe2_1UIhFU-6" edge="1">
          <mxGeometry width="50" height="50" relative="1" as="geometry">
            <mxPoint x="-240" y="637" as="sourcePoint" />
            <mxPoint x="-85" y="637" as="targetPoint" />
          </mxGeometry>
        </mxCell>
        <mxCell id="wkqNDu4oZNAe2_1UIhFU-25" value="&lt;font style=&quot;font-size: 12px;&quot;&gt;&lt;span lang=&quot;EN-US&quot; style=&quot;line-height: 125%; font-family: &amp;quot;맑은 고딕&amp;quot;; font-size: 12px;&quot;&gt;⑥&lt;/span&gt;&amp;nbsp;결제하기 버튼 클릭&lt;/font&gt;" style="text;html=1;strokeColor=none;fillColor=none;align=center;verticalAlign=middle;whiteSpace=wrap;rounded=0;fontSize=12;fontStyle=1" parent="1" vertex="1">
          <mxGeometry x="-206.26999999999998" y="639" width="122.13" height="33" as="geometry" />
        </mxCell>
        <mxCell id="wkqNDu4oZNAe2_1UIhFU-35" value="&lt;font style=&quot;font-size: 12px&quot;&gt;&lt;span lang=&quot;EN-US&quot; style=&quot;line-height: 125% ; font-family: &amp;#34;맑은 고딕&amp;#34; ; font-size: 12px&quot;&gt;⑦&lt;/span&gt;&amp;nbsp;Rule/CRule &lt;br&gt;API 호출&amp;nbsp;&lt;/font&gt;→ 승인 요청" style="text;html=1;strokeColor=none;fillColor=none;align=center;verticalAlign=middle;whiteSpace=wrap;rounded=0;fontSize=12;fontStyle=1" parent="1" vertex="1">
          <mxGeometry x="4.01" y="619" width="128.49" height="20" as="geometry" />
        </mxCell>
        <mxCell id="wkqNDu4oZNAe2_1UIhFU-36" value="&lt;span style=&quot;font-size: 12px;&quot;&gt;TMS&amp;nbsp; KEY TOKEN,&lt;br style=&quot;font-size: 12px;&quot;&gt;금액, 할부기간 전송&lt;br style=&quot;font-size: 12px;&quot;&gt;&lt;/span&gt;" style="rounded=0;whiteSpace=wrap;html=1;fontSize=12;fontStyle=1" parent="1" vertex="1">
          <mxGeometry x="9.26" y="559" width="112.5" height="50" as="geometry" />
        </mxCell>
        <mxCell id="wkqNDu4oZNAe2_1UIhFU-39" value="" style="startArrow=none;startFill=0;startSize=7;endArrow=block;endFill=0;endSize=10;dashed=1;html=1;fontSize=12;fontStyle=1" parent="1" source="Cnj2iCvaiaWYSwRsUYoD-9" edge="1">
          <mxGeometry width="100" relative="1" as="geometry">
            <mxPoint x="115" y="712.8800000000001" as="sourcePoint" />
            <mxPoint x="-34" y="712.8800000000001" as="targetPoint" />
            <Array as="points">
              <mxPoint x="39.54" y="712.88" />
            </Array>
          </mxGeometry>
        </mxCell>
        <mxCell id="wkqNDu4oZNAe2_1UIhFU-41" value="" style="endArrow=classic;html=1;entryX=-0.043;entryY=0.154;entryDx=0;entryDy=0;entryPerimeter=0;fontSize=12;fontStyle=1" parent="1" target="Cnj2iCvaiaWYSwRsUYoD-9" edge="1">
          <mxGeometry width="50" height="50" relative="1" as="geometry">
            <mxPoint x="-34" y="650.02" as="sourcePoint" />
            <mxPoint x="112" y="650" as="targetPoint" />
          </mxGeometry>
        </mxCell>
        <mxCell id="wkqNDu4oZNAe2_1UIhFU-42" value="&lt;font style=&quot;font-size: 12px&quot;&gt;&lt;span lang=&quot;EN-US&quot; style=&quot;line-height: 125% ; font-family: &amp;#34;맑은 고딕&amp;#34; ; font-size: 12px&quot;&gt;⑧&amp;nbsp;&lt;/span&gt;승인결과 응답&lt;br style=&quot;font-size: 12px&quot;&gt;&lt;/font&gt;" style="text;html=1;strokeColor=none;fillColor=none;align=center;verticalAlign=middle;whiteSpace=wrap;rounded=0;fontSize=12;fontStyle=1" parent="1" vertex="1">
          <mxGeometry x="6.51" y="720" width="118" height="20" as="geometry" />
        </mxCell>
        <mxCell id="wkqNDu4oZNAe2_1UIhFU-43" value="" style="startArrow=none;startFill=0;startSize=7;endArrow=block;endFill=0;endSize=10;dashed=1;html=1;fontSize=12;fontStyle=1" parent="1" source="wkqNDu4oZNAe2_1UIhFU-6" edge="1">
          <mxGeometry width="100" relative="1" as="geometry">
            <mxPoint x="-84.63" y="729" as="sourcePoint" />
            <mxPoint x="-239.63" y="729" as="targetPoint" />
            <Array as="points">
              <mxPoint x="-155.13" y="729" />
            </Array>
          </mxGeometry>
        </mxCell>
        <mxCell id="wkqNDu4oZNAe2_1UIhFU-44" value="&lt;font style=&quot;font-size: 12px;&quot;&gt;⑨ 카드 인식 화면 출력&amp;nbsp;&lt;/font&gt;" style="text;html=1;strokeColor=none;fillColor=none;align=center;verticalAlign=middle;whiteSpace=wrap;rounded=0;fontSize=12;fontStyle=1" parent="1" vertex="1">
          <mxGeometry x="-210.08999999999997" y="700" width="129.76" height="20" as="geometry" />
        </mxCell>
        <mxCell id="wkqNDu4oZNAe2_1UIhFU-45" value="&lt;span style=&quot;font-size: 12px;&quot;&gt;Sub Process&lt;br style=&quot;font-size: 12px;&quot;&gt;금액, 할부기간 체크&lt;br style=&quot;font-size: 12px;&quot;&gt;&lt;/span&gt;" style="text;html=1;strokeColor=none;fillColor=none;align=center;verticalAlign=middle;whiteSpace=wrap;rounded=0;fontSize=12;fontStyle=1" parent="1" vertex="1">
          <mxGeometry x="204" y="663" width="118" height="20" as="geometry" />
        </mxCell>
        <mxCell id="Cnj2iCvaiaWYSwRsUYoD-1" value="" style="endArrow=classic;html=1;fontSize=12;fontStyle=1" parent="1" target="wkqNDu4oZNAe2_1UIhFU-6" edge="1">
          <mxGeometry width="50" height="50" relative="1" as="geometry">
            <mxPoint x="-240" y="792" as="sourcePoint" />
            <mxPoint x="-85.00000000000023" y="792" as="targetPoint" />
          </mxGeometry>
        </mxCell>
        <mxCell id="Cnj2iCvaiaWYSwRsUYoD-2" value="&lt;font style=&quot;font-size: 12px;&quot;&gt;&lt;span lang=&quot;EN-US&quot; style=&quot;line-height: 125%; font-family: &amp;quot;맑은 고딕&amp;quot;; font-size: 12px;&quot;&gt;⑩&lt;/span&gt;&amp;nbsp;카드 삽입&lt;/font&gt;" style="text;html=1;strokeColor=none;fillColor=none;align=center;verticalAlign=middle;whiteSpace=wrap;rounded=0;fontSize=12;fontStyle=1" parent="1" vertex="1">
          <mxGeometry x="-191.85" y="766" width="90" height="20" as="geometry" />
        </mxCell>
        <mxCell id="Cnj2iCvaiaWYSwRsUYoD-6" value="" style="endArrow=classic;html=1;fontSize=12;fontStyle=1" parent="1" edge="1">
          <mxGeometry width="50" height="50" relative="1" as="geometry">
            <mxPoint x="-34" y="809.3999999999999" as="sourcePoint" />
            <mxPoint x="361.5500000000002" y="809.3999999999999" as="targetPoint" />
          </mxGeometry>
        </mxCell>
        <mxCell id="Cnj2iCvaiaWYSwRsUYoD-7" value="&lt;font style=&quot;font-size: 12px;&quot;&gt;&lt;span lang=&quot;EN-US&quot; style=&quot;line-height: 125%; font-family: &amp;quot;맑은 고딕&amp;quot;; font-size: 12px;&quot;&gt;⑪&lt;/span&gt;&amp;nbsp;소켓통신 → 결제요청&lt;/font&gt;" style="text;html=1;strokeColor=none;fillColor=none;align=center;verticalAlign=middle;whiteSpace=wrap;rounded=0;fontSize=12;fontStyle=1" parent="1" vertex="1">
          <mxGeometry x="6" y="818" width="135" height="20" as="geometry" />
        </mxCell>
        <mxCell id="Cnj2iCvaiaWYSwRsUYoD-8" value="&lt;span style=&quot;font-size: 12px;&quot;&gt;카드, 결제, 터미널 VAN, 세금관련 정보 전송&lt;br style=&quot;font-size: 12px;&quot;&gt;&lt;/span&gt;" style="rounded=0;whiteSpace=wrap;html=1;fontSize=12;fontStyle=1" parent="1" vertex="1">
          <mxGeometry x="202" y="818" width="130.5" height="50" as="geometry" />
        </mxCell>
        <mxCell id="Cnj2iCvaiaWYSwRsUYoD-20" value="" style="startArrow=none;startFill=0;startSize=7;endArrow=block;endFill=0;endSize=10;dashed=1;html=1;fontSize=12;fontStyle=1" parent="1" edge="1">
          <mxGeometry width="100" relative="1" as="geometry">
            <mxPoint x="361.5500000000002" y="887.8600000000001" as="sourcePoint" />
            <mxPoint x="-34" y="887.8599999999999" as="targetPoint" />
            <Array as="points">
              <mxPoint x="192.81" y="887.86" />
            </Array>
          </mxGeometry>
        </mxCell>
        <mxCell id="Cnj2iCvaiaWYSwRsUYoD-21" value="&lt;font style=&quot;font-size: 12px&quot;&gt;&amp;nbsp;⑫ 요청 결과 전송&lt;/font&gt;" style="text;html=1;strokeColor=none;fillColor=none;align=center;verticalAlign=middle;whiteSpace=wrap;rounded=0;fontSize=12;fontStyle=1" parent="1" vertex="1">
          <mxGeometry x="9.999999999999993" y="892" width="120" height="20" as="geometry" />
        </mxCell>
        <mxCell id="Cnj2iCvaiaWYSwRsUYoD-22" value="&lt;span style=&quot;font-size: 12px;&quot;&gt;카드 정보 전송&lt;br style=&quot;font-size: 12px;&quot;&gt;&lt;/span&gt;" style="rounded=0;whiteSpace=wrap;html=1;fontSize=12;fontStyle=1" parent="1" vertex="1">
          <mxGeometry x="28.5" y="915" width="93" height="30" as="geometry" />
        </mxCell>
        <mxCell id="Cnj2iCvaiaWYSwRsUYoD-24" value="" style="endArrow=classic;html=1;entryX=-0.046;entryY=0.14;entryDx=0;entryDy=0;entryPerimeter=0;fontSize=12;fontStyle=1" parent="1" target="Cnj2iCvaiaWYSwRsUYoD-23" edge="1">
          <mxGeometry width="50" height="50" relative="1" as="geometry">
            <mxPoint x="-34" y="978" as="sourcePoint" />
            <mxPoint x="110" y="978" as="targetPoint" />
          </mxGeometry>
        </mxCell>
        <mxCell id="Cnj2iCvaiaWYSwRsUYoD-25" value="&lt;font style=&quot;font-size: 12px&quot;&gt;⑬ PUSH API 호출&lt;/font&gt;" style="text;html=1;strokeColor=none;fillColor=none;align=center;verticalAlign=middle;whiteSpace=wrap;rounded=0;fontSize=12;fontStyle=1" parent="1" vertex="1">
          <mxGeometry x="15.130000000000003" y="985" width="108.25" height="20" as="geometry" />
        </mxCell>
        <mxCell id="Cnj2iCvaiaWYSwRsUYoD-27" value="&lt;font style=&quot;font-size: 12px&quot;&gt;&lt;span lang=&quot;EN-US&quot; style=&quot;line-height: 125% ; font-size: 12px&quot;&gt;⑭&lt;/span&gt;&amp;nbsp;결제결과 전송&lt;/font&gt;" style="text;html=1;strokeColor=none;fillColor=none;align=center;verticalAlign=middle;whiteSpace=wrap;rounded=0;fontSize=12;fontStyle=1" parent="1" vertex="1">
          <mxGeometry x="9.259999999999987" y="1064" width="120" height="20" as="geometry" />
        </mxCell>
        <mxCell id="Cnj2iCvaiaWYSwRsUYoD-28" value="" style="startArrow=none;startFill=0;startSize=7;endArrow=block;endFill=0;endSize=10;dashed=1;html=1;fontSize=12;fontStyle=1" parent="1" source="Cnj2iCvaiaWYSwRsUYoD-23" edge="1">
          <mxGeometry width="100" relative="1" as="geometry">
            <mxPoint x="114.04814000000033" y="1055.0500000000002" as="sourcePoint" />
            <mxPoint x="-34" y="1055" as="targetPoint" />
            <Array as="points">
              <mxPoint x="42.31999999999999" y="1055" />
            </Array>
          </mxGeometry>
        </mxCell>
        <mxCell id="Cnj2iCvaiaWYSwRsUYoD-29" value="&lt;span style=&quot;font-size: 12px;&quot;&gt;광원거래번호&lt;br style=&quot;font-size: 12px;&quot;&gt;(trxId) 전송&lt;br style=&quot;font-size: 12px;&quot;&gt;&lt;/span&gt;" style="rounded=0;whiteSpace=wrap;html=1;fontSize=12;fontStyle=1" parent="1" vertex="1">
          <mxGeometry x="27" y="1090" width="93" height="30" as="geometry" />
        </mxCell>
        <mxCell id="Cnj2iCvaiaWYSwRsUYoD-30" value="&lt;font style=&quot;font-size: 12px&quot;&gt;&lt;span lang=&quot;EN-US&quot; style=&quot;line-height: 125% ; font-size: 12px&quot;&gt;⑮&amp;nbsp;&lt;/span&gt;결제완료 화면 출력&lt;/font&gt;" style="text;html=1;strokeColor=none;fillColor=none;align=center;verticalAlign=middle;whiteSpace=wrap;rounded=0;fontSize=12;fontStyle=1" parent="1" vertex="1">
          <mxGeometry x="-210.09" y="1090" width="131.13" height="20" as="geometry" />
        </mxCell>
        <mxCell id="Cnj2iCvaiaWYSwRsUYoD-31" value="" style="startArrow=none;startFill=0;startSize=7;endArrow=block;endFill=0;endSize=10;dashed=1;html=1;fontSize=12;fontStyle=1" parent="1" edge="1">
          <mxGeometry width="100" relative="1" as="geometry">
            <mxPoint x="-44.99999999999977" y="1077" as="sourcePoint" />
            <mxPoint x="-240" y="1077" as="targetPoint" />
            <Array as="points">
              <mxPoint x="-157.32" y="1077" />
            </Array>
          </mxGeometry>
        </mxCell>
        <mxCell id="Cnj2iCvaiaWYSwRsUYoD-39" value="&lt;span style=&quot;font-size: 12px;&quot;&gt;KEY TOKEN 값, &lt;br style=&quot;font-size: 12px;&quot;&gt;결제정보 전송&lt;/span&gt;&lt;span style=&quot;font-size: 12px;&quot;&gt;&lt;br style=&quot;font-size: 12px;&quot;&gt;&lt;/span&gt;" style="rounded=0;whiteSpace=wrap;html=1;fontSize=12;fontStyle=1" parent="1" vertex="1">
          <mxGeometry x="27.5" y="1008" width="93" height="30" as="geometry" />
        </mxCell>
        <mxCell id="Cnj2iCvaiaWYSwRsUYoD-42" value="" style="startArrow=none;startFill=0;startSize=7;endArrow=block;endFill=0;endSize=10;dashed=1;html=1;fontSize=12;fontStyle=1;exitX=-0.039;exitY=0.562;exitDx=0;exitDy=0;exitPerimeter=0;" parent="1" source="Cnj2iCvaiaWYSwRsUYoD-34" target="wkqNDu4oZNAe2_1UIhFU-6" edge="1">
          <mxGeometry width="100" relative="1" as="geometry">
            <mxPoint x="160" y="475" as="sourcePoint" />
            <mxPoint x="-33" y="475" as="targetPoint" />
            <Array as="points" />
          </mxGeometry>
        </mxCell>
        <mxCell id="Cnj2iCvaiaWYSwRsUYoD-44" value="" style="endArrow=classic;html=1;exitX=1.069;exitY=0.039;exitDx=0;exitDy=0;exitPerimeter=0;fontSize=12;fontStyle=1" parent="1" target="Cnj2iCvaiaWYSwRsUYoD-34" edge="1">
          <mxGeometry width="50" height="50" relative="1" as="geometry">
            <mxPoint x="-34.240999999999985" y="461.47" as="sourcePoint" />
            <mxPoint x="164.46000000000004" y="461.47" as="targetPoint" />
          </mxGeometry>
        </mxCell>
        <mxCell id="Cnj2iCvaiaWYSwRsUYoD-45" value="&lt;font style=&quot;font-size: 12px;&quot;&gt;&lt;span lang=&quot;EN-US&quot; style=&quot;line-height: 125%; font-family: &amp;quot;맑은 고딕&amp;quot;; font-size: 12px;&quot;&gt;③&amp;nbsp;&lt;/span&gt;TMS KEY 토큰 값 발급&lt;/font&gt;" style="text;html=1;strokeColor=none;fillColor=none;align=center;verticalAlign=middle;whiteSpace=wrap;rounded=0;fontSize=12;fontStyle=1" parent="1" vertex="1">
          <mxGeometry x="-2.030000000000001" y="488" width="145.06" height="20" as="geometry" />
        </mxCell>
        <mxCell id="Cnj2iCvaiaWYSwRsUYoD-56" value="&lt;font style=&quot;font-size: 12px;&quot;&gt;&lt;span lang=&quot;EN-US&quot; style=&quot;line-height: 125%; font-family: &amp;quot;맑은 고딕&amp;quot;; font-size: 12px;&quot;&gt;④&amp;nbsp;&lt;/span&gt;결제금액, 할부기간 입력&lt;/font&gt;" style="text;html=1;strokeColor=none;fillColor=none;align=center;verticalAlign=middle;whiteSpace=wrap;rounded=0;fontSize=12;fontStyle=1" parent="1" vertex="1">
          <mxGeometry x="-220.55" y="514" width="150.69" height="20" as="geometry" />
        </mxCell>
        <mxCell id="Cnj2iCvaiaWYSwRsUYoD-57" value="&lt;font style=&quot;font-size: 12px;&quot;&gt;&lt;span lang=&quot;EN-US&quot; style=&quot;line-height: 125%; font-family: &amp;quot;맑은 고딕&amp;quot;; font-size: 12px;&quot;&gt;②&amp;nbsp;&lt;/span&gt;Key API 호출&lt;/font&gt;" style="text;html=1;strokeColor=none;fillColor=none;align=center;verticalAlign=middle;whiteSpace=wrap;rounded=0;fontSize=12;fontStyle=1" parent="1" vertex="1">
          <mxGeometry x="7.25000000000001" y="429" width="112.75" height="20" as="geometry" />
        </mxCell>
        <mxCell id="Cnj2iCvaiaWYSwRsUYoD-58" value="" style="startArrow=none;startFill=0;startSize=7;endArrow=block;endFill=0;endSize=10;dashed=1;html=1;fontSize=12;fontStyle=1" parent="1" source="wkqNDu4oZNAe2_1UIhFU-6" edge="1">
          <mxGeometry width="100" relative="1" as="geometry">
            <mxPoint x="-90" y="566" as="sourcePoint" />
            <mxPoint x="-240.88" y="566" as="targetPoint" />
            <Array as="points">
              <mxPoint x="-156.38" y="566" />
            </Array>
          </mxGeometry>
        </mxCell>
        <mxCell id="Cnj2iCvaiaWYSwRsUYoD-60" value="" style="endArrow=none;dashed=1;html=1;fontSize=12;fontStyle=1" parent="1" edge="1">
          <mxGeometry width="50" height="50" relative="1" as="geometry">
            <mxPoint x="-241" y="1120" as="sourcePoint" />
            <mxPoint x="-241.07000000000002" y="425" as="targetPoint" />
          </mxGeometry>
        </mxCell>
        <mxCell id="Cnj2iCvaiaWYSwRsUYoD-64" value="" style="endArrow=classic;html=1;fontSize=12;fontStyle=1;entryX=-0.063;entryY=0.168;entryDx=0;entryDy=0;entryPerimeter=0;" parent="1" target="wkqNDu4oZNAe2_1UIhFU-6" edge="1">
          <mxGeometry width="50" height="50" relative="1" as="geometry">
            <mxPoint x="-240.88" y="546" as="sourcePoint" />
            <mxPoint x="-50" y="546" as="targetPoint" />
          </mxGeometry>
        </mxCell>
        <mxCell id="Cnj2iCvaiaWYSwRsUYoD-65" value="&lt;font style=&quot;font-size: 12px;&quot;&gt;&lt;span lang=&quot;EN-US&quot; style=&quot;line-height: 125%; font-family: &amp;quot;맑은 고딕&amp;quot;; font-size: 12px;&quot;&gt;①&amp;nbsp;&lt;/span&gt;결제 앱 실행&lt;/font&gt;" style="text;html=1;strokeColor=none;fillColor=none;align=center;verticalAlign=middle;whiteSpace=wrap;rounded=0;fontSize=12;fontStyle=1" parent="1" vertex="1">
          <mxGeometry x="-203.22" y="423" width="112.75" height="20" as="geometry" />
        </mxCell>
        <mxCell id="Cnj2iCvaiaWYSwRsUYoD-66" value="" style="endArrow=classic;html=1;fontSize=12;fontStyle=1;entryX=-0.039;entryY=0.034;entryDx=0;entryDy=0;entryPerimeter=0;" parent="1" target="wkqNDu4oZNAe2_1UIhFU-6" edge="1">
          <mxGeometry width="50" height="50" relative="1" as="geometry">
            <mxPoint x="-241" y="454" as="sourcePoint" />
            <mxPoint x="-46.60500000000002" y="453.46000000000004" as="targetPoint" />
          </mxGeometry>
        </mxCell>
        <mxCell id="Cnj2iCvaiaWYSwRsUYoD-67" value="&lt;font style=&quot;font-size: 12px;&quot;&gt;&lt;span lang=&quot;EN-US&quot; style=&quot;line-height: 125%; font-family: &amp;quot;맑은 고딕&amp;quot;; font-size: 12px;&quot;&gt;⑤&amp;nbsp;&lt;/span&gt;결제하기 버튼 클릭 요청&lt;/font&gt;" style="text;html=1;strokeColor=none;fillColor=none;align=center;verticalAlign=middle;whiteSpace=wrap;rounded=0;fontSize=12;fontStyle=1" parent="1" vertex="1">
          <mxGeometry x="-216.52" y="575" width="151.63" height="20" as="geometry" />
        </mxCell>
        <mxCell id="Cnj2iCvaiaWYSwRsUYoD-71" value="&lt;span style=&quot;font-size: 12px&quot;&gt;터미널,&amp;nbsp;&lt;/span&gt;&lt;span style=&quot;font-size: 12px&quot;&gt;VAN 정보 전송&lt;/span&gt;&lt;span style=&quot;font-size: 12px&quot;&gt;&lt;br style=&quot;font-size: 12px&quot;&gt;&lt;/span&gt;" style="rounded=0;whiteSpace=wrap;html=1;fontSize=12;fontStyle=1" parent="1" vertex="1">
          <mxGeometry x="-6.4300000000000015" y="743" width="151.37" height="30" as="geometry" />
        </mxCell>
      </root>
    </mxGraphModel>
  </diagram>
</mxfile>
